<svg xmlns="http://www.w3.org/2000/svg" xmlns:xlink="http://www.w3.org/1999/xlink" viewBox="0 0 32 33.99"><defs><style>.cls-1{fill:none;}.cls-2{clip-path:url(#clip-path);}.cls-3,.cls-4{fill:#363795;stroke:#363795;stroke-miterlimit:10;}.cls-3{stroke-width:0.16px;}.cls-4{stroke-width:0.06px;}</style><clipPath id="clip-path"><rect class="cls-1" width="32.02" height="33.94"/></clipPath></defs><title>favicon2-18</title><g id="Layer_2" data-name="Layer 2"><g class="cls-2"><path class="cls-3" d="M.83,29.51c0,.18,0,.35,0,.53s0,.28,0,.42-.06.53-.08.79l0,.47c0,.26,0,.51-.08.76,0,0,0,.07,0,.09a.63.63,0,0,1,0,.33,1,1,0,0,0,0,.17s0,0,0,.06a5.15,5.15,0,0,1,0,.68.79.79,0,0,0,0,.48.72.72,0,0,1,0,.52.12.12,0,0,0,0,.08,2.26,2.26,0,0,1,0,.58c0,.15,0,.29,0,.44s0,.1,0,.16h0l0-.19a1.7,1.7,0,0,0,0-.22,1.64,1.64,0,0,1-.1-.49c0-.29,0-.58,0-.87,0-.11,0-.22,0-.33,0-.46,0-.93,0-1.39v-.06c0-.05,0-.1-.08-.1a.2.2,0,0,0-.08.08,2,2,0,0,0-.2.69c-.09.57-.11,1.15-.16,1.72a5.23,5.23,0,0,0,0,.56L0,36a2,2,0,0,0,0,.35,1.6,1.6,0,0,1,0,.49A.2.2,0,0,0,0,37c0,.07.07.15.11.21a.13.13,0,0,1,0,.19.35.35,0,0,0-.06.17c0,.21,0,.41,0,.62a.42.42,0,0,1-.06.19c0,.07-.09.06-.14,0a.22.22,0,0,1,0-.22A1.74,1.74,0,0,0-.18,38a.17.17,0,0,1,0-.07,2.16,2.16,0,0,0,.09-.62.14.14,0,0,0,0-.06c-.07-.06,0-.13,0-.2a.45.45,0,0,0,0-.2.74.74,0,0,1,0-.33,1.61,1.61,0,0,0,0-.31c0-.15,0-.29,0-.44s0-.39,0-.58A8.09,8.09,0,0,1,0,34.31c0-.2,0-.4,0-.61s.05-.22.06-.34.07-.39.09-.59,0-.48,0-.71a2.11,2.11,0,0,1,0-.26c0-.11,0-.22,0-.32s0-.24,0-.35,0-.51,0-.77c0-.07,0-.13,0-.2s0-.28,0-.42l.09-.87a.55.55,0,0,0,0-.18,1.61,1.61,0,0,1,0-.58A.76.76,0,0,0,.4,28a5.09,5.09,0,0,1,.06-.87,7.93,7.93,0,0,0,.08-1c0-.31,0-.61.06-.91,0-.54.1-1.07.15-1.6s.12-.93.19-1.4l0,0c.06,0,.09,0,.08.1s-.05.24-.08.36a.18.18,0,0,0,0,.16.17.17,0,0,1,0,.1c0,.35-.08.7-.11,1.06a3.29,3.29,0,0,0-.05.54,1.53,1.53,0,0,1,0,.37c0,.29,0,.59,0,.88,0,.5,0,1,0,1.49,0,.19,0,.39,0,.59a1.26,1.26,0,0,1,0,.27.18.18,0,0,0,0,.14.24.24,0,0,1,0,.14c0,.28,0,.56,0,.84,0,.1,0,.2,0,.3a.45.45,0,0,1-.1-.34c0-.07,0-.14,0-.21,0-.25-.14-.43-.24-.64a.14.14,0,0,0,0,.1c0,.12,0,.24,0,.36,0,.46-.05.92-.06,1.38a14.6,14.6,0,0,0,0,1.62c0,.16,0,.16.21.22,0-.05,0-.1,0-.15s0-.18,0-.26c0-.29.07-.58.11-.87a2.06,2.06,0,0,1,0-.44,1.11,1.11,0,0,0,0-.36,1.41,1.41,0,0,1,0-.2C.78,29.65.81,29.58.83,29.51Z"/><path class="cls-3" d="M8.25,23.6V24a1,1,0,0,1-.05.41h0c.07.23,0,.45,0,.68a5.34,5.34,0,0,1-.05.69.5.5,0,0,0,0,.12,1.4,1.4,0,0,0,0,.54,1.27,1.27,0,0,1,0,.26c0,.2,0,.4,0,.61l0,1.29a1.21,1.21,0,0,0,0,.19.22.22,0,0,1,0,.19.17.17,0,0,0,0,.14c0,.13,0,.26.09.36a.17.17,0,0,1,0,.08l-.06.88,0,.37c0,.45,0,.91-.07,1.37,0,.27,0,.55,0,.83l-.06,1.54a1.71,1.71,0,0,1,0,.32,1.25,1.25,0,0,0,0,.51,2.12,2.12,0,0,1,0,.24.63.63,0,0,1-.52-.4.68.68,0,0,1,0-.15.54.54,0,0,1,0-.22c.06-.12,0-.22,0-.33a4.07,4.07,0,0,0,0-.5c0-.09,0-.18,0-.27s0-.32,0-.48A.8.8,0,0,0,7,32.87a.28.28,0,0,1,0-.18.45.45,0,0,0,0-.28.87.87,0,0,1,0-.32c0-.21,0-.43,0-.64,0-.39,0-.77,0-1.16s0-.5,0-.75,0-.38.06-.57,0-.35,0-.53,0-.39,0-.59,0-.38,0-.56a3.8,3.8,0,0,0,0-.89c0-.27.08-.53.07-.8s0-.33,0-.49l.06-.85c0-.08,0-.16,0-.23a1.15,1.15,0,0,1,0-.16.25.25,0,0,1,.09.24l0,.4c0,.45,0,.89,0,1.34l0,.35a4.05,4.05,0,0,0,0,.92c0,.05,0,.1,0,.15,0,.25,0,.49-.07.73,0,0,0,.08,0,.11a2.17,2.17,0,0,1,0,.44,5.05,5.05,0,0,0-.08.68c0,.35,0,.7-.06,1.05a1.14,1.14,0,0,0,0,.58.24.24,0,0,1,0,.12.79.79,0,0,0,0,.4c0,.2,0,.4,0,.6s0,.55,0,.82,0,.55.06.83,0,.46.08.69,0,.22,0,.32,0,0,0,.06a.15.15,0,0,1,0,.17.13.13,0,0,0,.08.15.47.47,0,0,0,.17,0s0-.06,0-.09a1.84,1.84,0,0,0,0-.47,1.82,1.82,0,0,1,0-.33l0-.65c0-.07,0-.14,0-.21s0-.23,0-.35,0-.51,0-.76a5.79,5.79,0,0,1,0-.72c0-.43.08-.87.1-1.3a3.27,3.27,0,0,0,0-.54.76.76,0,0,1,0-.42.17.17,0,0,0,0-.1,1.64,1.64,0,0,1,0-.66c0-.19,0-.39,0-.59l0-.69,0-.61c0-.06,0-.12,0-.18A10.79,10.79,0,0,1,8,25.11c.05-.31.08-.62.12-.94,0-.16,0-.32,0-.48S8.18,23.61,8.25,23.6Z"/><path class="cls-3" d="M5.19,3.89l-.25-.11a1.87,1.87,0,0,0-.58-.12c-.09,0-.22,0-.26.08s.08.14.15.19a1.88,1.88,0,0,0,.18.12.66.66,0,0,1,.33.84,4.35,4.35,0,0,1-.48.84,4,4,0,0,0-.23.34.41.41,0,0,0,0,.48.13.13,0,0,1-.18-.07.54.54,0,0,1,.08-.58.86.86,0,0,1,.14-.13,1,1,0,0,0,.22-.31,1.51,1.51,0,0,1,.18-.26,1.47,1.47,0,0,0,.23-.45.49.49,0,0,0-.19-.55,1.84,1.84,0,0,0-.43-.3c-.12-.06-.24-.16-.37-.22a.84.84,0,0,0-.3-.11c-.14,0-.17,0-.19-.24h.11a.61.61,0,0,1,.18.05,2.59,2.59,0,0,0,.83.15c.11,0,.16-.07.11-.17l-.09-.12C4.22,3.09,4.09,3,4,2.81A2.09,2.09,0,0,1,3.6,2a.52.52,0,0,1,.21-.53,1.47,1.47,0,0,1,.62-.35c.14,0,.27-.12.41-.15A3.07,3.07,0,0,0,5.43.67.4.4,0,0,0,5.59.54c.19-.23.38-.46.56-.7A.56.56,0,0,1,6.51-.4a.25.25,0,0,1,.22.07A.94.94,0,0,1,7,.5a2.21,2.21,0,0,0,0,.68A.57.57,0,0,0,7.28,1c.15-.16.29-.32.45-.47A1.12,1.12,0,0,1,8,.39C8.08.3,8.2.2,8.34.12A1.15,1.15,0,0,1,8.62.05l.05,0c.09.1.17.21.26.32L9,.48a.39.39,0,0,1,.12.3A.84.84,0,0,1,9,1.25c0,.06,0,.13-.07.19a.81.81,0,0,1-.1.21A.42.42,0,0,0,9,2.24l.38.23v.18A.84.84,0,0,1,9,2.39a4.08,4.08,0,0,1-.25-.33.28.28,0,0,1,0-.18A4.79,4.79,0,0,1,8.92,1,.5.5,0,0,0,8.87.57.82.82,0,0,0,8.65.3a.26.26,0,0,0-.29,0,2.61,2.61,0,0,0-.28.17,4.63,4.63,0,0,0-.71.69A2.16,2.16,0,0,1,7,1.44s-.1,0-.16,0a.73.73,0,0,0-.08-.09c-.09-.07-.1-.13,0-.23s0-.16,0-.24,0-.31,0-.47A1.28,1.28,0,0,0,6.73-.1c-.05-.13-.13-.16-.26-.1a1.15,1.15,0,0,0-.42.4L5.73.69a.28.28,0,0,1-.25.15.28.28,0,0,0-.19.07,1.08,1.08,0,0,1-.47.2A2,2,0,0,0,4,1.55a.64.64,0,0,0-.12.74,3.45,3.45,0,0,0,.69,1,2,2,0,0,0,.32.25.76.76,0,0,0,.32.17C5.24,3.68,5.24,3.74,5.19,3.89Z"/><path class="cls-3" d="M4.73,9.11c.07.15.07.15.23.13s.15,0,.16.11a.56.56,0,0,1,0,.18c0,.1,0,.19-.05.31H5s0,0,0,0a2.21,2.21,0,0,1,0-.25c0-.08,0-.15,0-.17a.16.16,0,0,0-.21,0A10.54,10.54,0,0,0,4,10.3a3.08,3.08,0,0,1-.24.27,1,1,0,0,0-.09.13c-.1.15-.22.29-.31.45a4.35,4.35,0,0,0-.29.52,2,2,0,0,0-.18.4c-.13.38-.35.71-.5,1.08-.08.2-.17.39-.26.59s-.23.44-.34.67a5.14,5.14,0,0,0-.38.94,1.67,1.67,0,0,0-.06.44,2,2,0,0,0,0,.65,1.23,1.23,0,0,1,0,.19c0,.16.06.32.1.49l.07.08c0-.15,0-.28.08-.41s.11-.48.16-.71.07-.29.1-.43a.29.29,0,0,0,0-.16c0-.1,0-.19,0-.25s.18-.33.27-.49a.17.17,0,0,0,0-.1.3.3,0,0,1,.13-.25,1.85,1.85,0,0,1,0,.23l-.12.3-.06.28a2.21,2.21,0,0,0,0,.25c0,.11-.05.22-.07.33s0,.21-.05.31c-.08.31-.17.62-.24.93s-.11.53-.17.8a1.23,1.23,0,0,0,0,.63.35.35,0,0,1,0,.3.13.13,0,0,0,0,.06,2.88,2.88,0,0,1,0,.58,1.5,1.5,0,0,0,0,.36v.09a.35.35,0,0,1-.13,0,.16.16,0,0,0-.16.14c0,.13-.05.25-.08.38l0,.17h0s0-.06,0-.09a2.61,2.61,0,0,1,0-.28.21.21,0,0,1,0-.11.63.63,0,0,0,.11-.35,1.36,1.36,0,0,1,0-.4,2.15,2.15,0,0,0,0-.8,2.81,2.81,0,0,1,0-.82v0a6.09,6.09,0,0,1,0-.85c0-.22,0-.44,0-.66l0-.56a.67.67,0,0,1,.07-.34c.09-.2.15-.42.23-.62s.26-.58.39-.88c0-.1.09-.19.13-.29.12-.26.24-.52.35-.78s.14-.36.22-.53.17-.29.24-.44l.18-.42c.05-.14.1-.29.16-.43s0-.06.06-.06.15-.11.2-.19a.53.53,0,0,0,.06-.1.31.31,0,0,1,.19-.2A.42.42,0,0,0,4,10.12l0,0a4.84,4.84,0,0,0,.62-.75A1.05,1.05,0,0,0,4.73,9.11Z"/><path class="cls-3" d="M6.38,13.76l-.13-.11a.17.17,0,0,0,.09-.22c0-.08,0-.15,0-.22a.5.5,0,0,0,0-.13c-.09-.17-.18-.34-.28-.51l0,0a.36.36,0,0,1,0-.1l.09,0,0,0a2.73,2.73,0,0,0,.3.59c.07.11.11.25.18.37.16.3.34.6.5.91a2.64,2.64,0,0,1,.28.67.66.66,0,0,0,.25.41,3.57,3.57,0,0,1,.27.28l0,0c0,.19.15.23.27.31s0,0,.05,0a1.31,1.31,0,0,0,.65.28l.15,0c.21.11.42.22.64.32l1,.47.58.27a.48.48,0,0,0,.35.08s.07,0,.1,0,.2,0,.24-.12.1-.36.16-.54a3.56,3.56,0,0,1,.13-.39c0-.05.06-.1.11-.08a.15.15,0,0,1,.09.11.36.36,0,0,1-.08.38,1.32,1.32,0,0,0-.2.32,1.7,1.7,0,0,0-.1.32.26.26,0,0,1-.28.19h-.3a.61.61,0,0,1-.34-.14,4.37,4.37,0,0,0-.68-.35l-.32-.14a1.09,1.09,0,0,0-.25-.1.84.84,0,0,1-.36-.22c-.05,0-.09-.08-.14-.08a1.74,1.74,0,0,1-.4-.15c-.15-.05-.3-.11-.45-.15a1.57,1.57,0,0,1-.64-.33l-.41-.37a.34.34,0,0,1-.14-.29,1.4,1.4,0,0,0-.15-.53.5.5,0,0,1,0-.13,1.33,1.33,0,0,0-.32-.58A.61.61,0,0,1,6.65,14a.46.46,0,0,0-.14-.2.1.1,0,0,0-.14,0Z"/><path class="cls-3" d="M5.31,36.3v.42c0,.09,0,.18,0,.27a.24.24,0,0,1-.06.21s0,0,0,.07a.23.23,0,0,1-.07.15,1.44,1.44,0,0,1-.18.25.22.22,0,0,1-.21.06,1,1,0,0,0-.44,0s-.08,0-.12,0a.08.08,0,0,1,.11-.06.42.42,0,0,0,.34-.11.81.81,0,0,1,.39-.17c.09,0,.11-.06.08-.15a1.16,1.16,0,0,1,0-.49,3.12,3.12,0,0,0,.09-.44,1.55,1.55,0,0,0,0-.22c0-.22,0-.42,0-.64s0-.31,0-.47,0-.21.05-.32,0-.06,0-.09c0-.39.07-.79.1-1.18,0-.06,0-.15.08-.14s0,.09,0,.15a7.77,7.77,0,0,0-.1,1c0,.2,0,.4-.07.6s0,.28,0,.41a2.64,2.64,0,0,1,0,.29.4.4,0,0,0,.21.48l.22.13a.25.25,0,0,0,.25,0,.52.52,0,0,1,.35,0,1,1,0,0,0,.3.05.4.4,0,0,0,.23-.1A.53.53,0,0,1,7.23,36l.22.17c0,.07,0,.12-.13.11H7.27c-.15,0-.27,0-.32.18l0,0H6.85a.31.31,0,0,0-.38.09.17.17,0,0,1-.14,0,.62.62,0,0,0-.19,0,.41.41,0,0,1-.26,0,1.23,1.23,0,0,1-.24-.22A.52.52,0,0,0,5.31,36.3Z"/><path class="cls-3" d="M6.05,22.82a.44.44,0,0,1,0,.16c0,.47,0,.95-.05,1.42s0,.63,0,1,0,.78,0,1.18,0,.56,0,.84,0,.56-.05.84,0,.56,0,.84c0,.45,0,.91-.08,1.36,0,.27,0,.54,0,.82l-.09.83s0,.09,0,.14c0,.27-.05.55-.08.82a.11.11,0,0,1,0,.07c-.07,0-.09,0-.08-.09l.12-1c0-.15,0-.29,0-.43s0-.28,0-.42l0-.66c0-.3.06-.6.08-.9,0-.09,0-.17,0-.26s0-.14,0-.21,0-.32,0-.48a2,2,0,0,0,0-.35,6.48,6.48,0,0,1,0-.88c0-.28.05-.57.05-.86a6,6,0,0,0,0-.85,7.22,7.22,0,0,1,0-.93c0-.35,0-.71.05-1.06,0-.11,0-.22,0-.33a2,2,0,0,0,0-.24.65.65,0,0,1,0-.24C5.89,22.87,6,22.83,6.05,22.82Z"/><path class="cls-3" d="M4.73,9,4.7,9l-.21,0c0-.1,0-.18.14-.22a.24.24,0,0,0,.17-.19.4.4,0,0,1,.25-.24.73.73,0,0,0,.39-.2.09.09,0,0,1,0,0c.1,0,.17-.07.26-.12a5.35,5.35,0,0,0,.54-.34,1,1,0,0,0,.23-.23.2.2,0,0,0,0-.34A1.88,1.88,0,0,0,6.24,7,.43.43,0,0,0,6,6.93c-.17,0-.34,0-.51.05a2.15,2.15,0,0,1-.51,0,.2.2,0,0,1-.16-.13l-.08-.23-.18,0a.17.17,0,0,1,.21,0,.45.45,0,0,0,.28,0,3.31,3.31,0,0,1,.44,0,3.42,3.42,0,0,1,.45,0,.36.36,0,0,1,.21.11.37.37,0,0,0,.34.12h.18c0,.19,0,.36,0,.54a.33.33,0,0,1,0,.22.61.61,0,0,1-.22.23C6.27,8,6.1,8,6,8.14a.22.22,0,0,0-.1.09,1.27,1.27,0,0,1-.44.36,2.77,2.77,0,0,0-.55.33S4.78,8.94,4.73,9Z"/><path class="cls-3" d="M8.91,19.6a.29.29,0,0,0-.17.21l-.09.71a1.85,1.85,0,0,1,0,.23c0,.14-.07.15-.24.15a.17.17,0,0,1,0-.18,2.27,2.27,0,0,0,.15-.61,5.14,5.14,0,0,0,.16-.78,1.49,1.49,0,0,1,0-.21s0-.09,0-.12a.47.47,0,0,0,.09-.33c0-.07,0-.15,0-.22l.06-.3c0-.1.05-.21.08-.32s0-.24.07-.36.08-.37.13-.55c0,0,0,0,0,0s.12.12.09.21a2,2,0,0,0-.09.33c-.07.43-.14.85-.2,1.27a0,0,0,0,0,0,0c0,.4,0,.81,0,1.21a1.48,1.48,0,0,1,0,.21,1.93,1.93,0,0,0,0,.24c0,.11,0,.22,0,.32s0,.28-.05.43a.33.33,0,0,1,0,.14s-.07.08-.11,0a.14.14,0,0,1-.05-.1c0-.19.05-.37.09-.55a2.57,2.57,0,0,0,0-.62c0-.11,0-.22,0-.33S8.91,19.64,8.91,19.6Z"/><path class="cls-3" d="M8.2,21.25c.06.19.31.17.42.32a.15.15,0,0,1-.2.08,1.58,1.58,0,0,0-.78,0l-.07,0c-.12.11-.26.09-.4.11s-.26.06-.39.08l-.27,0L5.74,22a2.72,2.72,0,0,1-.64,0l-.35,0-.52-.1c-.21,0-.43,0-.64-.06s-.19,0-.27-.05.05-.11,0-.15-.07-.07-.12-.09a3.12,3.12,0,0,0-.73-.24c-.09,0-.19,0-.23-.13s.1,0,.14,0a.47.47,0,0,0,.32.08s0,0,.07,0l.37.15.49.16h0a.35.35,0,0,0,.36.1c.06,0,.13,0,.2.05l.41.05.9.06a.31.31,0,0,0,.19,0,1.06,1.06,0,0,1,.39-.06c.3,0,.6-.06.89-.09l.13-.05a1,1,0,0,1,.24-.05,1.32,1.32,0,0,0,.48-.13A.28.28,0,0,0,8,21.38C8.07,21.29,8.07,21.29,8.2,21.25Z"/><path class="cls-3" d="M9.38,2.71A.47.47,0,0,1,9.56,3a1.21,1.21,0,0,0,.11.3,1.45,1.45,0,0,0,.07.26c0,.15.13.29.19.44a1.12,1.12,0,0,1,.1.4.59.59,0,0,0,0,.13s0,.11,0,.15a.65.65,0,0,0,0,.31,1.86,1.86,0,0,0,.25.64.82.82,0,0,0,.11.17l0,.13a.3.3,0,0,1-.13,0c-.17,0-.26.09-.34.21a4.92,4.92,0,0,0-.26.43L9.5,6.9a.45.45,0,0,0,0,.11,1,1,0,0,1-.1.54,2.67,2.67,0,0,1-.09.26.28.28,0,0,0,0,.13c0,.12,0,.16-.19.17,0,0,0-.08,0-.1a.26.26,0,0,0,.06-.24.76.76,0,0,1,0-.33,1.36,1.36,0,0,0,.08-.39c0-.14.1-.24.15-.36s0,0,.05,0a2.35,2.35,0,0,0,.19-.43.5.5,0,0,1,.24-.29l.07,0c.21-.08.2-.16.12-.36a3.1,3.1,0,0,0-.21-.45.83.83,0,0,1-.05-.44.78.78,0,0,0,0-.34l0-.15a2.85,2.85,0,0,0-.32-.9,2,2,0,0,1-.14-.34.24.24,0,0,1,0-.12A.33.33,0,0,1,9.38,2.71Z"/><path class="cls-3" d="M14.55,18.88a.47.47,0,0,1-.29,0c-.07,0-.13,0-.15-.12s-.06-.07-.1-.08a.29.29,0,0,0-.13,0,.76.76,0,0,1-.33-.08.23.23,0,0,0-.12,0,.5.5,0,0,1-.44-.35c0-.06,0-.1-.1-.13a.31.31,0,0,1-.07-.09.9.9,0,0,0-.21-.3s0-.14.07-.21l.11.24c0,.05,0,.12.12.1s.1-.06.1-.15a.4.4,0,0,0-.1-.26l-.06-.09c.09-.06.1-.06.15,0s.13.24.2.36l.19.32a3.78,3.78,0,0,0,.22.33.35.35,0,0,0,.25.15.84.84,0,0,0,.47,0,1.6,1.6,0,0,1,.44,0c.18,0,.35,0,.45-.19a.11.11,0,0,1,.17,0c.06.07.07.16,0,.2a.18.18,0,0,1-.12,0,1.29,1.29,0,0,0-.58.12C14.57,18.73,14.56,18.75,14.55,18.88Z"/><path class="cls-3" d="M13,6.36V6.6l-.22.05a3.53,3.53,0,0,0-.85.28l-.73.32a2.06,2.06,0,0,0-.4.25l-.06,0a2.44,2.44,0,0,0-.55.35.88.88,0,0,0-.25.22s-.06.06-.09.09c-.07-.14-.07-.16,0-.24s.15-.11.17-.21,0,0,.07,0a1.14,1.14,0,0,0,.49-.28s0,0,0,0a4.75,4.75,0,0,1,.85-.48l.39-.14a.56.56,0,0,0,.2-.11,1,1,0,0,1,.4-.19A1.58,1.58,0,0,1,13,6.36Z"/><path class="cls-3" d="M17.33,5.18s0,.08-.07.12l-.16.18a.35.35,0,0,0-.05.08c-.08.14,0,.23.13.21a1.26,1.26,0,0,0,.42-.12,1.12,1.12,0,0,1,.25-.11.3.3,0,0,1,.13,0v0l-.27.1-.44.12a.3.3,0,0,0-.23.22c0,.08-.07.13-.14.1a1.12,1.12,0,0,0-.57.08,1.1,1.1,0,0,0-.26.06,3,3,0,0,0-.3.18l-.18.09-.19.12a.13.13,0,0,1-.2,0s.06-.06.09-.06a.31.31,0,0,0,.2-.23.23.23,0,0,1,.22-.18A1.69,1.69,0,0,0,16.26,6l.33-.18a.65.65,0,0,1,.2-.05,1.42,1.42,0,0,1,.49-.62Z"/><path class="cls-3" d="M14,9.28c0,.15-.06.18-.18.16a1.33,1.33,0,0,0-.4.05.22.22,0,0,0-.15.1,1.84,1.84,0,0,1-.54.32,5,5,0,0,0-.52.25l-1.06.55a5.73,5.73,0,0,0-1,.56c-.11.09-.13.08-.22,0a.41.41,0,0,1,.26-.17,1.82,1.82,0,0,0,.43-.19l.46-.24.17-.09,1.25-.71.39-.22a6.19,6.19,0,0,1,.63-.32A.73.73,0,0,1,14,9.28Z"/><path class="cls-3" d="M9.39,13.9H9.25A.27.27,0,0,1,9,13.57c0-.2,0-.41,0-.61s0-.29,0-.43a4.15,4.15,0,0,0,0-.79l-.09-.81a1.77,1.77,0,0,1,0-.23c0-.07,0-.11.14-.1s0,.1,0,.14-.06.26.08.35a.27.27,0,0,1,0,.16c0,.22,0,.44,0,.65a4,4,0,0,1,0,.6c0,.2,0,.39,0,.58a1.32,1.32,0,0,1,0,.34.36.36,0,0,0,.07.3l.14.18Z"/><path class="cls-3" d="M13.52,8.93c0,.06,0,.09-.11.07a.18.18,0,0,0-.16,0L13,9.12l-.24.09-.44.2A8.22,8.22,0,0,0,11,10a5.53,5.53,0,0,0-.71.48.33.33,0,0,1-.1.06c-.05,0-.11,0-.13,0a.09.09,0,0,1,0-.13c.18-.11.35-.23.53-.33l.72-.41.07,0a.88.88,0,0,0,.38-.14,4.23,4.23,0,0,1,.9-.33A.43.43,0,0,0,13,9a.2.2,0,0,1,.21-.09Z"/><path class="cls-3" d="M1.54,22.5a.24.24,0,0,1,.06.22c0,.16-.05.31-.07.47s-.06.58-.08.87-.05.87-.08,1.31a3.55,3.55,0,0,0,0,.65,1.36,1.36,0,0,1,0,.2l-.07.07s-.06-.06-.05-.08c0-.19-.08-.37-.05-.57a3.17,3.17,0,0,0,0-.44,1.47,1.47,0,0,0,0-.21,9.71,9.71,0,0,1,.08-1.21,2.9,2.9,0,0,0,0-.51,1.2,1.2,0,0,1,0-.2,1.45,1.45,0,0,0,.09-.46A.37.37,0,0,1,1.54,22.5Z"/><path class="cls-3" d="M1.7,21.78c-.07-.12,0-.19.07-.28a.57.57,0,0,1-.18-.38c0-.1,0-.14.12-.15h.14c0,.14-.11.06-.17.12s0,.12.07.17a.3.3,0,0,1,.09.27,2.14,2.14,0,0,1,.64.32,1.42,1.42,0,0,0,.54.23l.37.08.67.21a.32.32,0,0,1,.09,0s0,0,0,.05,0,0,0,0H4.07l-.5-.14-.71-.21-.17-.07-.53-.23L2,21.75a.19.19,0,0,0-.28,0Z"/><path class="cls-3" d="M14.64,7.14s0,0,0,0a2.15,2.15,0,0,1-.09.84,3.7,3.7,0,0,0-.14.55s0,.08,0,.12a.86.86,0,0,1,0,.22c0,.13,0,.14-.17.11a.56.56,0,0,1-.06-.4.66.66,0,0,0,0-.14.78.78,0,0,1,.1-.36c.07-.19.12-.39.18-.58l.09-.4Z"/><path class="cls-3" d="M13.37,6.25a1.86,1.86,0,0,1,.73-.18v0c-.1.13-.08.18.06.23l.27.07a.49.49,0,0,0,.17,0c.06,0,.1,0,.14,0a1.11,1.11,0,0,0,.4.26s-.05,0-.07,0a.82.82,0,0,0-.38-.09s0,0-.07-.05a.71.71,0,0,0-.86.07.53.53,0,0,0-.06.1s-.08.09-.14,0,0-.08,0-.14a1.66,1.66,0,0,1,.14-.13,1.06,1.06,0,0,0,.17-.2.13.13,0,0,0,0-.12s-.07,0-.1,0l-.31.08Z"/><path class="cls-3" d="M4.35,22.43h.19l.77,0,.83,0,.52,0,.32,0,.08,0a.63.63,0,0,1-.38,0,1.14,1.14,0,0,0-.52,0l0,.07c0,.05-.06.07-.11,0l-.21-.09a.29.29,0,0,0-.13,0c-.14,0-.29,0-.43,0a.13.13,0,0,1-.12,0,.36.36,0,0,0-.23,0H4.51A.15.15,0,0,1,4.35,22.43Z"/><path class="cls-3" d="M10.59,14.88l.14.09.72.71a1.77,1.77,0,0,1,.17.12s0,.07,0,.09a.09.09,0,0,1-.09,0,.91.91,0,0,1-.16-.11L11,15.54l-.43-.36a.35.35,0,0,1-.12-.23S10.51,14.87,10.59,14.88Z"/><path class="cls-3" d="M8.46,7.89a.26.26,0,0,0-.1.07.39.39,0,0,1-.48.13c-.17,0-.27-.09-.39-.17a.36.36,0,0,1,.54,0c.11.11.15.11.27,0l.13-.08Z"/><path class="cls-3" d="M7.2,22.53a.28.28,0,0,1,.21-.11,2.36,2.36,0,0,0,.51-.12.92.92,0,0,1,.4-.07.29.29,0,0,1-.06.33l-.18-.08a.3.3,0,0,0-.36,0l-.07,0Z"/><path class="cls-3" d="M2.34,14.22c0-.07,0-.12,0-.17.05-.22.1-.44.16-.66s.1-.28.15-.41a.06.06,0,0,1,.06,0,1.88,1.88,0,0,1,0,.33l-.21.78C2.45,14.12,2.44,14.19,2.34,14.22Z"/><path class="cls-3" d="M9.65,8.31a1.4,1.4,0,0,1-.1.16c-.13.15-.26.31-.4.46L9,9.07c-.11.07-.19,0-.19-.11a.25.25,0,0,1,0-.14l0,.15A.14.14,0,0,0,9,8.92l.4-.45c.07-.07.14-.13.2-.2Z"/><path class="cls-3" d="M3.57,21.08h.2l.2,0h.1l.43.22c-.09.07-.15,0-.23,0a1.06,1.06,0,0,1-.25,0l-.24-.06-.22-.06Z"/><path class="cls-3" d="M2,20.63c.15,0,.27.11.42,0-.07.18-.25.21-.31.36L2,20.94Z"/><path class="cls-3" d="M4.73,21.38a.55.55,0,0,1,.58.11.26.26,0,0,1-.25,0,1.09,1.09,0,0,1-.23-.09Z"/><path class="cls-3" d="M3.78,9.61l.13.11a1.41,1.41,0,0,1-.14.18.34.34,0,0,0-.13.35s0,0,0,0-.11-.08-.07-.15a1.32,1.32,0,0,0,.15-.39A.51.51,0,0,1,3.78,9.61Z"/><path class="cls-3" d="M9.39,13.9a.67.67,0,0,1,.15.06l.42.35s0,0,0,0l0,0A2.17,2.17,0,0,1,9.42,14s0-.06,0-.09Z"/><path class="cls-3" d="M18,4.73c-.16.16-.39.23-.57.4,0-.17,0-.16.14-.21l.18-.11C17.83,4.72,17.84,4.72,18,4.73Z"/><path class="cls-3" d="M1,21c0-.11,0-.19.08-.28l.23,0s0,.08-.06.11Z"/><path class="cls-3" d="M1.77,20.47a.9.9,0,0,1-.16.17.72.72,0,0,1-.22,0,.07.07,0,0,1,0-.12A.64.64,0,0,1,1.77,20.47Z"/><path class="cls-3" d="M5.58,8.87,5.51,9l-.34.1A.48.48,0,0,1,5.58,8.87Z"/><path class="cls-3" d="M2.19,15.77a.63.63,0,0,1,.07-.35l.06,0a.09.09,0,0,1,0,0,.32.32,0,0,1,0,.14c0,.07-.07.13-.1.2Z"/><path class="cls-3" d="M5.61,8.89A.46.46,0,0,1,6,8.77c-.09.08-.25,0-.27.18Z"/><path class="cls-3" d="M1.64,21.86c0,.09,0,.17,0,.26s0,.05-.06.07-.06-.05-.06-.07l0-.26Z"/><path class="cls-3" d="M8.93,22c-.07-.09-.08-.16,0-.33,0,0,.06,0,.06,0A.42.42,0,0,1,8.93,22Z"/><path class="cls-3" d="M13.7,9l-.06,0-.05,0c.08-.12.19-.08.31-.08Z"/><path class="cls-3" d="M2,14.47a.7.7,0,0,1-.05.4C1.85,14.77,1.86,14.65,2,14.47Z"/><path class="cls-3" d="M15.55,6.2a.43.43,0,0,1-.31,0C15.3,6.12,15.4,6.11,15.55,6.2Z"/><path class="cls-3" d="M9,8l-.14.09S8.78,8,8.83,8,8.94,7.94,9,8Z"/><path class="cls-3" d="M8.66,18.58l0,.22C8.56,18.77,8.54,18.68,8.66,18.58Z"/><path class="cls-3" d="M14.69,6.07c.14,0,.15.06.05.18A.13.13,0,0,1,14.69,6.07Z"/><path class="cls-3" d="M15.52,6.06c0-.1.11-.12.18-.15A.23.23,0,0,1,15.52,6.06Z"/><path class="cls-3" d="M6.36,8.59l.23-.11c0,.08,0,.11-.1.12S6.4,8.66,6.36,8.59Z"/><path class="cls-3" d="M4.23,1.41l.18.17C4.27,1.6,4.21,1.55,4.23,1.41Z"/><path class="cls-3" d="M1.33,21.67l-.18.15C1.16,21.66,1.18,21.64,1.33,21.67Z"/><path class="cls-3" d="M8.64,13.38l.2.11c-.14,0-.16,0-.22-.08Z"/><path class="cls-3" d="M10.79,7s0-.07,0-.1a.12.12,0,0,1,.05-.07s.08,0,.07.07,0,.06,0,.1Z"/><path class="cls-3" d="M8.28,13.16c.09,0,.14,0,.18.09A.14.14,0,0,1,8.28,13.16Z"/><path class="cls-3" d="M10,7.76l-.21.15C9.84,7.78,9.88,7.75,10,7.76Z"/><path class="cls-3" d="M10,14.82l.15,0C10,15,10,15,10,14.82Z"/><path class="cls-3" d="M8.86,10a.23.23,0,0,1,0,.25C8.83,10.19,8.78,10.12,8.86,10Z"/><path class="cls-3" d="M5.87,9.14a.43.43,0,0,1,0-.1.25.25,0,0,0,0-.08c.07,0,.11,0,.11.08S5.91,9.09,5.87,9.14Z"/><path class="cls-3" d="M4.09,6.51h.2C4.26,6.59,4.2,6.6,4.09,6.51Z"/><path class="cls-3" d="M14.65,6.67c0,.09,0,.14,0,.2A.15.15,0,0,1,14.65,6.67Z"/><path class="cls-3" d="M4.84,7,4.6,7C4.7,6.93,4.7,6.93,4.84,7Z"/><path class="cls-3" d="M8.65,8.42l.1-.13C8.81,8.38,8.79,8.41,8.65,8.42Z"/><path class="cls-3" d="M7.9,14.38l-.22-.1c.13,0,.17,0,.23.06Z"/><path class="cls-3" d="M8.14,15c.1.07.1.07,0,.15A.12.12,0,0,1,8.14,15Z"/><path class="cls-3" d="M9.89,14.84c-.11,0-.15,0-.17-.08S9.83,14.77,9.89,14.84Z"/><path class="cls-3" d="M8.18,15.43c0,.06,0,.12-.09.15l.05-.16Z"/><path class="cls-3" d="M8,8.59l0,.05a.18.18,0,0,1,0,.07s-.06,0-.06-.05Z"/><path class="cls-3" d="M3,10.7l.14-.07C3.19,10.73,3.17,10.75,3,10.7Z"/><path class="cls-3" d="M8.17,14.69s0,0,0,0,0,.09-.06.1,0,0,0,0S8.12,14.69,8.17,14.69Z"/><path class="cls-3" d="M3.07,21.09c-.07.05-.07.05-.15,0A.11.11,0,0,1,3.07,21.09Z"/><path class="cls-3" d="M7.26,29.82v-.2h.05l0,.19Z"/><path class="cls-3" d="M10.64,7c0,.06,0,.09-.08.08l0,0C10.55,7,10.59,7,10.64,7Z"/><path class="cls-3" d="M3.33,21.06c0,.09-.07.08-.13,0Z"/><path class="cls-3" d="M14.78,19.22c.05,0,.08,0,.11,0S14.83,19.28,14.78,19.22Z"/><path class="cls-3" d="M8.45,23.19l-.08.16C8.35,23.26,8.37,23.23,8.45,23.19Z"/><path class="cls-3" d="M17,5.16l-.13,0v0l.13,0Z"/><path class="cls-3" d="M2.11,16.05c-.06-.1,0-.12,0-.15Z"/><path class="cls-3" d="M8.57,8.29l-.12.05C8.48,8.25,8.48,8.25,8.57,8.29Z"/><path class="cls-3" d="M13.07,17.29v-.11h0S13.13,17.23,13.07,17.29Z"/><path class="cls-3" d="M7.49,14s0,0,0,0l-.06,0,0,0S7.46,14,7.49,14Z"/><path class="cls-3" d="M4.09,9.19l.08-.08,0,0-.09.07Z"/><path class="cls-3" d="M6.37,13.76a.19.19,0,0,1,.09.18.25.25,0,0,1-.08-.18Z"/><path class="cls-3" d="M7.06,8.21,7,8.26l0,0L7,8.17Z"/><path class="cls-3" d="M10.27,9.88c0-.05.05-.05.09,0s0,.05,0,.05A.05.05,0,0,1,10.27,9.88Z"/><path class="cls-3" d="M8,14.45l.08.1c-.1,0-.1,0-.11-.07Z"/><path class="cls-3" d="M7.27,29.34v-.12l0,0s0,.06,0,.09Z"/><path class="cls-3" d="M3.16,10.51l0-.07,0,0,0,.08Z"/><path class="cls-3" d="M9.6,14.7l-.07-.06,0,0,.09.05Z"/><path class="cls-3" d="M7.33,14.4l.07,0v0l-.07,0Z"/><path class="cls-3" d="M5.32,21.2l-.08,0,0,0,.08,0Z"/><path class="cls-3" d="M7.25,8l0,0,0,0,0,0Z"/><path class="cls-3" d="M7.12,8.07l.07,0,0,0-.07,0Z"/><path class="cls-3" d="M6.07,12.34a.13.13,0,0,1,0-.06l0,0s0,0,0,.05v0Z"/><path class="cls-3" d="M10.29,7.08h-.08v0l.08,0Z"/><path class="cls-3" d="M9.07,14l0,.06H9l0-.06Z"/><path class="cls-3" d="M16.45,5.54l-.05,0,0,0s0,0,0,0Z"/><path class="cls-3" d="M16.83,5.49l-.12,0C16.74,5.43,16.77,5.43,16.83,5.49Z"/><path class="cls-3" d="M17.47,5.34h.07v0l-.08,0Z"/><path class="cls-3" d="M8.88,13.89l0,0,0,0s0,0,0,0Z"/><path class="cls-3" d="M14.69,8.61l-.08,0h0l0-.06Z"/><path class="cls-4" d="M30.93,28.2l-.24,0s-.1-.06-.13-.05c-.22.12-.47,0-.72.09a1.32,1.32,0,0,1,0-.24,1.16,1.16,0,0,1,0-.18c0-.27.08-.31.35-.25a1.39,1.39,0,0,0,.94-.17l.15-.07c.21-.11.41-.23.61-.35a6.06,6.06,0,0,0,.53-.35,4.38,4.38,0,0,0,.76-.54,6.29,6.29,0,0,1,.71-.65c.14-.11.3-.19.45-.29a1.11,1.11,0,0,0,.41-.6.25.25,0,0,0,0-.22c-.08-.09-.12.07-.21.07s-.16-.25-.33-.28c-.11-.19-.22-.38-.32-.57a.09.09,0,0,1,0-.07.62.62,0,0,0-.06-.53.7.7,0,0,0-.27-.32c-.13-.09-.24-.15-.37,0l-.32-.34,0,0,.16,0c.17-.14.17-.15.09-.31a.7.7,0,0,0-.11-.21,2.54,2.54,0,0,1-.43-.77,3.71,3.71,0,0,0-.28-.41c-.11-.17-.22-.34-.32-.51s-.19-.35-.3-.52a.63.63,0,0,0-.22-.21.29.29,0,0,1-.19-.26.31.31,0,0,0-.18-.26A.23.23,0,0,1,31,18.7c0-.16-.17-.25-.22-.39a1,1,0,0,0-.37-.48l-.52-.47a2.52,2.52,0,0,0-.68-.38A2.09,2.09,0,0,1,29,16.9a.62.62,0,0,0-.5-.06.25.25,0,0,1-.28-.07c-.11-.1-.24-.18-.39-.3.08,0,.12,0,.15,0a.31.31,0,0,0,.32,0,.36.36,0,0,1,.25,0,8.68,8.68,0,0,1,1,.4,3.06,3.06,0,0,1,.58.44l.22.18a3,3,0,0,1,.64.74c.22.34.47.67.7,1a4,4,0,0,1,.23.34l.36.59c.1.16.2.31.29.47l.48.77.09.11c.06.07.15.13.17.2a1.14,1.14,0,0,0,.49.67,1.59,1.59,0,0,1,.38.44,6.42,6.42,0,0,0,.48.65,6,6,0,0,1,.42.69,9,9,0,0,0,.46.87c.08.18.16.37.22.55s0,.13-.05.18a.29.29,0,0,0,0,.35.7.7,0,0,1,.09.29c0,.13,0,.25,0,.38a.34.34,0,0,1,0,.18.39.39,0,0,0,0,.5c.06.11.13.21.2.32a.81.81,0,0,0-.09.55l0,.4a2.68,2.68,0,0,1,0,.4c0,.15-.05.3-.07.45s-.06.21-.07.32c0,.31,0,.62,0,.93s-.05.63-.07,1a.31.31,0,0,0,0,.19.75.75,0,0,1,0,.64.43.43,0,0,0,0,.19,5.51,5.51,0,0,1-.08,1c0,.37,0,.75,0,1.12,0,0,0,0,0,0,0,.37,0,.4-.45.38a2.16,2.16,0,0,1,.07-.8c.11-.52.21-1,.33-1.57,0-.13.09-.27.11-.41s0-.37-.22-.46a.21.21,0,0,1,0-.32,1.77,1.77,0,0,0,.2-.6,1.47,1.47,0,0,0,0-.36,2.07,2.07,0,0,1,.08-.7.61.61,0,0,0,0-.44.77.77,0,0,1,0-.63,2.21,2.21,0,0,0,0-.85.52.52,0,0,0-.06-.13c-.05-.08-.13-.11-.18-.05-.2.21-.45.13-.67.15s-.25,0-.37,0a1.37,1.37,0,0,0-1,.51s0,0-.05.05-.13.19-.26.15-.11-.17-.15-.27,0-.07,0-.1,0-.18-.2-.17a5.87,5.87,0,0,0-.59.05,2.47,2.47,0,0,1-.9,0,.18.18,0,0,1-.15-.14,5.7,5.7,0,0,0,.58.06c.29,0,.57,0,.86,0l.58-.06a1.28,1.28,0,0,0,.27,0,2.41,2.41,0,0,0,.33-.15.68.68,0,0,0,.45-.57c0-.22,0-.47-.23-.63,0,0,0,0,0-.06.18,0,.44.28.42.43s.07.42,0,.63,0,.18.12.21a.55.55,0,0,0,.22,0c.22-.08.44-.17.65-.27s.19-.15.19-.22a1.24,1.24,0,0,0-.07-.66.32.32,0,0,1,.12-.38c.16-.1.22-.19.14-.34a2.86,2.86,0,0,1-.2-.69,1.2,1.2,0,0,0-.26-.53s-.09,0-.1.06a.5.5,0,0,1-.31.2.73.73,0,0,0-.39.27,2,2,0,0,1-.32.33l-.74.59a.55.55,0,0,0-.17.2.16.16,0,0,0,0,.15s.1,0,.15,0l.22-.06a.25.25,0,0,1-.26.2.27.27,0,0,0-.18.05,2.76,2.76,0,0,1-.64.43,2.49,2.49,0,0,1-.69.25,2.72,2.72,0,0,0-.49.13C30.87,27.8,30.83,27.92,30.93,28.2Z"/><path class="cls-4" d="M23,16.33c-.23.11-.39,0-.59-.16,0,.08-.11.14-.1.2a1.49,1.49,0,0,1-.2.58c-.07.18-.16.36-.22.55s0,.25.17.31.3.16.28.38a1.56,1.56,0,0,1-.08.42c0,.05-.08.08-.12.11s-.19-.21-.29-.29-.21-.18-.43,0c0,0-.06-.06-.07-.1a4.63,4.63,0,0,0-.38-1.12.61.61,0,0,1-.05-.18.49.49,0,0,1,.05-.16.29.29,0,0,1,.13.08c.1.12.19.26.29.38a.46.46,0,0,0,.1.1c.13-.24.34-.42.33-.71.18-.17.16-.46.42-.59a.65.65,0,0,0,.14-.53.14.14,0,0,0-.17-.1l-.24,0a.43.43,0,0,1-.19-.5,1.64,1.64,0,0,0,0-.38c0-.21.09-.41.07-.63s.1-.2.17-.28a.48.48,0,0,0,.13-.3,7.77,7.77,0,0,1,.08-.83,1.22,1.22,0,0,1,.07-.25c-.07,0-.13,0-.16.05l-.2.21c-.09.1-.18.12-.25.05s0-.16,0-.23a1.3,1.3,0,0,1,.18-.15c.14-.12.27-.23.14-.43,0,0,0-.1,0-.11s.19-.24.35-.32a2.77,2.77,0,0,0,1-.7.49.49,0,0,1,.18-.11,1.37,1.37,0,0,0,.63-.58c.05-.06,0-.18,0-.27V9.58l.15.17.39,0,.16.61c.25-.15.38,0,.51.14a.18.18,0,0,1,.06.15,1.25,1.25,0,0,1-.1.63.51.51,0,0,0,0,.53l.17-.08a1.25,1.25,0,0,1,.26-.07c.12,0,.18,0,.19.16a1.45,1.45,0,0,0,.06.3.33.33,0,0,0,.27.22,1.35,1.35,0,0,1,.79.49.49.49,0,0,1,.08.24,1,1,0,0,0,.1.5.53.53,0,0,1-.1.6,4,4,0,0,1-.3.28.58.58,0,0,0-.16.15.28.28,0,0,0,0,.22.26.26,0,0,0,.21.08,2.48,2.48,0,0,1,.9,0,.43.43,0,0,1,.34.41v.38a.17.17,0,0,1-.15.19.53.53,0,0,0-.17,0c-.3.09-.34.23-.08.49-.26-.1-.48-.17-.69-.26s-.41-.18-.62-.28c.16-.23.2-.23.4-.12a1,1,0,0,0,.62.1c.11,0,.15-.08.1-.18a.44.44,0,0,0-.12-.15,2.69,2.69,0,0,1-.27-.2c-.18-.19-.44-.19-.66-.26s-.34-.09-.49-.16a.47.47,0,0,1-.21-.57c.08-.15.11-.33.28-.42s.19-.18.06-.37l.2.12a2.4,2.4,0,0,1,.27-.16.39.39,0,0,0,.07-.7,1.46,1.46,0,0,0-.54-.28.07.07,0,0,1-.06,0,1.14,1.14,0,0,0-.92-.29.84.84,0,0,1-.76-.66,1.22,1.22,0,0,1,.06-.68.29.29,0,0,0,0-.32.35.35,0,0,0-.39-.06.89.89,0,0,0-.31.19,5.25,5.25,0,0,1-.76.64,6.3,6.3,0,0,0-.57.48.37.37,0,0,0-.07.48,1,1,0,0,1,.07.67c-.06.22-.11.45-.15.67s-.13.72-.18,1.08a1.78,1.78,0,0,0,0,.4c0,.17.08.21.24.15l.14,0c.17-.05.26,0,.28.18a2.69,2.69,0,0,0,0,.4A5.43,5.43,0,0,0,23,16.33Zm2.27-5.52c0-.19-.11-.22-.21-.28s-.22-.06-.28.1-.08.33-.14.48a.83.83,0,0,0,0,.6.22.22,0,0,0,.22.16.24.24,0,0,0,.2-.21v-.14c0-.18-.06-.37.1-.54S25.21,10.85,25.23,10.81ZM27,13.54a.49.49,0,0,0-.23.11,3.47,3.47,0,0,0-.58.63,1,1,0,0,0-.1.29c0,.11.05.16.17.14a.39.39,0,0,0,.15-.06l.32-.36.2-.2C27.14,13.93,27.17,13.78,27,13.54Zm1,1.73a2,2,0,0,0-.22-.16c-.06,0-.14,0-.16,0a.18.18,0,0,0,.05.16A.23.23,0,0,0,28,15.27Z"/><path class="cls-4" d="M29.11,28.73a.24.24,0,0,1,0,.33,2.38,2.38,0,0,0-.48,1c-.08.21-.17.42-.24.63a4.54,4.54,0,0,0-.12.53c-.07.4-.12.81-.21,1.2,0,.23,0,.47-.08.68a2.74,2.74,0,0,0-.1.94,4.85,4.85,0,0,0-.19,1.36,3.69,3.69,0,0,0,.05,1.24.51.51,0,0,0,.1.21.42.42,0,0,1,.1.44,2.54,2.54,0,0,0-.18.86c0,.56,0,1.11,0,1.67a.71.71,0,0,1,0,.21,3.33,3.33,0,0,0,0,1.09,6.34,6.34,0,0,1,0,.76c0,.29,0,.58-.06.88,0,.53-.07,1.06-.09,1.59a8.63,8.63,0,0,0,0,.88,3.45,3.45,0,0,0,.13.7,1.38,1.38,0,0,1,0,.64,1.48,1.48,0,0,0,0,.31l.19.07c0,.14-.06.17-.35.14-.07-.09-.11-.21-.2-.26s-.19,0-.32,0c0-.31-.19-.46-.44-.6a1.65,1.65,0,0,1-.24-.22l-.57-.47a.43.43,0,0,1-.11-.12,4.69,4.69,0,0,1-.54-.64.39.39,0,0,1-.08-.14c0-.16.08-.26.24-.22l.13.05c-.14.25,0,.42.17.58l1.29,1.21.43.46a1.13,1.13,0,0,0,.08-.62c0-.21,0-.43,0-.64a4.1,4.1,0,0,0,0-.5,2.28,2.28,0,0,1,0-.64c0-.23,0-.46.05-.68a5.46,5.46,0,0,1,.12-1.21,1.8,1.8,0,0,0,0-.4,7.26,7.26,0,0,1,0-1.14,4.27,4.27,0,0,0,0-1,1,1,0,0,1,.08-.49,1,1,0,0,0,0-.54.9.9,0,0,1,0-.4,3.62,3.62,0,0,0,0-.57,1.21,1.21,0,0,1,0-.19.83.83,0,0,0,0-.56.15.15,0,0,1,0-.09c.16-.37,0-.74,0-1.11,0-.12-.07-.16-.17-.17s-.18-.09-.15-.21a1,1,0,0,1,.11-.31,1.59,1.59,0,0,0,.18-.57c.05-.38.15-.76.21-1.14s.08-.58.12-.87c0-.09,0-.17,0-.26a3,3,0,0,0,0-1,.88.88,0,0,1,.28-.75.46.46,0,0,0,.14-.2c.13-.34.23-.69.36-1a4.75,4.75,0,0,1,.31-.59S29.05,28.75,29.11,28.73Z"/><path class="cls-4" d="M26.49,22.39a.85.85,0,0,1-.47.12.85.85,0,0,0-.78.55,1.08,1.08,0,0,1-.5.53c-.46.28-.94.54-1.41.81a2.49,2.49,0,0,1-.43.22.39.39,0,0,1-.26,0,.77.77,0,0,0-.69.08.49.49,0,0,1-.13-.47.58.58,0,0,0,0-.26,5.39,5.39,0,0,0-.2-1l-.09-.22s-.05,0-.06-.07q-.16-.51-.3-1c0-.05,0-.15.09-.17s.13,0,.16.09a2.16,2.16,0,0,1,.16.49,3.66,3.66,0,0,0,.33.79c.11.34.23.67.35,1a2.47,2.47,0,0,0,.1.29.38.38,0,0,0,.53.23.47.47,0,0,0,.2-.1,6.9,6.9,0,0,0,.88-.74.76.76,0,0,1,.17-.13l.39-.27.33-.2a10.1,10.1,0,0,0,.84-.62.36.36,0,0,0,.07-.1,1.37,1.37,0,0,1,.22-.19.24.24,0,0,1,.37.09A2.18,2.18,0,0,1,26.49,22.39Z"/><path class="cls-4" d="M27.44,26.42c0-.07,0-.16.1-.19s.11-.19.05-.32a3.21,3.21,0,0,1-.12-.33,2.15,2.15,0,0,0-.1-.27L26.69,24c-.08-.16-.18-.31-.28-.49l.24-.16c.11.2.2.39.29.57l.42.88c.17.39.33.78.49,1.17a1.58,1.58,0,0,0,.33.52.42.42,0,0,1,.09.14,1.42,1.42,0,0,0,.56.58,2.9,2.9,0,0,1,.36.25.43.43,0,0,1,.12.22,2.83,2.83,0,0,1,.08.4c-.16.11-.21.1-.32,0a4.58,4.58,0,0,0-.47-.51,1.5,1.5,0,0,1-.33-.43,3.46,3.46,0,0,0-.22-.31S28,26.8,28,26.8C27.71,26.81,27.63,26.57,27.44,26.42Z"/><path class="cls-4" d="M23.65,21.34c-.07,0-.13,0-.16,0a1,1,0,0,1-.31-.5,2.33,2.33,0,0,1-.11-.31c-.06-.25-.12-.51-.18-.79l-.33,0-.47-.05a.58.58,0,0,0-.49.17.41.41,0,0,1-.41.07,6.06,6.06,0,0,0-.61-.16c-.12,0-.13,0-.13-.23.35,0,.71,0,.93-.35a1.46,1.46,0,0,0,.18.11.71.71,0,0,0,.28.09c.21,0,.43,0,.65,0a5.42,5.42,0,0,1,.58.06.15.15,0,0,1,.1.09c0,.11,0,.22.06.32a3.17,3.17,0,0,0,.18.62A2.71,2.71,0,0,1,23.65,21.34Z"/><path class="cls-4" d="M32.38,34.29l.12-.76a5.84,5.84,0,0,1,.15-.6.53.53,0,0,1,.11-.21c.06-.06.13-.11.22-.06a.2.2,0,0,1,.05.26,2,2,0,0,0-.42,1c0,.05,0,.11,0,.15a3.62,3.62,0,0,0-.28,1.21c-.06.37-.08.75-.12,1.13,0,.18,0,.19-.26.2a.93.93,0,0,1-.07-.49c0-.29.07-.58.11-.87s.06-.56.08-.83.06-.24.27-.16Z"/><path class="cls-4" d="M24.39,17.57c-.05-.15,0-.21.14-.24a.33.33,0,0,1,.17,0,1,1,0,0,0,.94-.41,1,1,0,0,1,.73-.33.36.36,0,0,1,.24.17.26.26,0,0,1,0,.29.86.86,0,0,1-.45.32,4.06,4.06,0,0,1-1.29.26A2.63,2.63,0,0,1,24.39,17.57Z"/><path class="cls-4" d="M30.85,19.64a.94.94,0,0,1-.42-.44,4.07,4.07,0,0,0-.72-.93c-.15-.13-.27-.3-.43-.43s-.32-.23-.49-.34a.48.48,0,0,0-.12,0c-.06-.11-.08-.22.07-.29a.5.5,0,0,1,.39.21s.08.08.12.11a8.39,8.39,0,0,1,.88.91c.22.23.4.48.59.72.06.08.11.16.16.24A.17.17,0,0,1,30.85,19.64Z"/><path class="cls-4" d="M27.3,26.22a1.79,1.79,0,0,1-.64-.7c-.15-.25-.33-.49-.46-.75a9,9,0,0,1-.38-.84c-.05-.13-.11-.25-.16-.38a.94.94,0,0,1-.06-.15c0-.07,0-.14.09-.16a.13.13,0,0,1,.17.1,6.22,6.22,0,0,0,.63,1.48c.22.4.49.77.74,1.15l.11.22Z"/><path class="cls-4" d="M28.57,28.3a4.34,4.34,0,0,0-.6,1.95c0,.2,0,.4,0,.62a.19.19,0,0,1-.14-.2,6.13,6.13,0,0,1,0-.86,9.23,9.23,0,0,1,.21-1c.05-.19.1-.39.33-.47A1,1,0,0,1,28.57,28.3Z"/><path class="cls-4" d="M24.83,17.93c.18.14.16.13.12.31a1.4,1.4,0,0,0,0,.54,3.34,3.34,0,0,0,.22.57c0,.12,0,.33,0,.36s-.15,0-.26-.2a2,2,0,0,1-.24-1.25A.42.42,0,0,1,24.83,17.93Z"/><path class="cls-4" d="M20.61,20.29c.07-.1.14-.1.23,0a.51.51,0,0,1,.14.4,2.36,2.36,0,0,0,.1.78.21.21,0,0,1-.25-.17c0-.23-.08-.45-.13-.67A2.34,2.34,0,0,0,20.61,20.29Z"/><path class="cls-4" d="M31.09,19.81a2.79,2.79,0,0,1,.59.72s0,.1,0,.16A1,1,0,0,1,31.09,19.81Z"/><path class="cls-4" d="M31.8,20.75a2.7,2.7,0,0,1,.28.31.78.78,0,0,0,.3.27c.09,0,.14.11,0,.23-.33-.16-.47-.49-.67-.75Z"/><path class="cls-4" d="M27.25,33.71c-.11-.15-.08-.33-.12-.49s0-.07,0-.07.09,0,.1,0a.64.64,0,0,1,.06.18c0,.11,0,.23,0,.34Z"/><path class="cls-4" d="M21.37,18.56a.27.27,0,0,1,0,.36C21.23,18.79,21.34,18.67,21.37,18.56Z"/><path class="cls-4" d="M27.31,33.76l.1.18C27.28,33.91,27.25,33.87,27.31,33.76Z"/><path class="cls-4" d="M28,15.27a.23.23,0,0,1-.33,0,.18.18,0,0,1-.05-.16c0-.08.1-.07.16,0A2,2,0,0,1,28,15.27Z"/></g></g></svg>